<svg width="227" height="100" viewBox="0 0 227 100" fill="none" xmlns="http://www.w3.org/2000/svg">
<path d="M124.651 37.72V46.424H95.2105V5.912H105.451V37.72H124.651ZM126.908 31.064C126.908 25.3467 128.124 21.2293 130.556 18.712C132.988 16.1947 137.105 14.936 142.908 14.936C146.791 14.936 149.905 15.4907 152.252 16.6C154.599 17.7093 156.284 19.4587 157.308 21.848C158.375 24.1947 158.908 27.2667 158.908 31.064C158.908 34.8187 158.375 37.8693 157.308 40.216C156.284 42.5627 154.599 44.2907 152.252 45.4C149.905 46.4667 146.791 47 142.908 47C137.105 47 132.988 45.7627 130.556 43.288C128.124 40.7707 126.908 36.696 126.908 31.064ZM142.908 38.232C145.383 38.232 147.047 37.6987 147.9 36.632C148.796 35.5227 149.244 33.6027 149.244 30.872C149.244 28.2693 148.796 26.4133 147.9 25.304C147.047 24.152 145.383 23.576 142.908 23.576C140.519 23.576 138.855 24.152 137.916 25.304C137.02 26.4133 136.572 28.2693 136.572 30.872C136.572 33.6027 137.02 35.5227 137.916 36.632C138.855 37.6987 140.519 38.232 142.908 38.232ZM188.592 37.4V45.72C187.525 46.1467 185.946 46.4667 183.856 46.68C181.765 46.8933 179.546 47 177.2 47C173.829 47 171.013 46.5307 168.752 45.592C166.533 44.6533 164.869 43.032 163.76 40.728C162.693 38.424 162.138 35.224 162.096 31.128C162.096 26.904 162.672 23.6187 163.824 21.272C165.018 18.9253 166.746 17.2827 169.008 16.344C171.269 15.4053 173.978 14.936 177.136 14.936C179.013 14.936 180.997 15.064 183.088 15.32C185.178 15.576 186.885 15.9173 188.208 16.344L188.272 24.92L188.08 25.048C186.8 24.792 185.434 24.6 183.984 24.472C182.533 24.344 181.104 24.28 179.696 24.28C176.837 24.28 174.853 24.8133 173.744 25.88C172.634 26.9467 172.08 28.7387 172.08 31.256C172.08 33.176 172.314 34.6053 172.784 35.544C173.253 36.4827 174.042 37.1013 175.152 37.4C176.261 37.6987 177.776 37.848 179.696 37.848C181.189 37.848 182.618 37.784 183.984 37.656C185.349 37.528 186.8 37.3787 188.336 37.208L188.592 37.4ZM204.576 46.424H194.336V3.352H204.576V28.44H204.704L212.768 15.256H224.032V15.512L214.56 30.232V30.488L225.568 46.424H213.792L204.768 32.024L204.576 31.96V46.424Z" fill="#FEFEFE"/>
<path d="M129.515 84.9007C129.515 88.314 128.448 90.8953 126.315 92.6447C124.224 94.394 120.512 95.2687 115.179 95.2687H95.2105V54.7567H97.7065H114.539C118.08 54.7567 120.832 55.1407 122.795 55.9087C124.8 56.634 126.208 57.722 127.019 59.1727C127.829 60.6233 128.235 62.4367 128.235 64.6127C128.235 67.5993 127.509 69.9247 126.059 71.5887C124.651 73.21 121.984 74.1913 118.059 74.5327V74.7247C120.96 74.938 123.243 75.4287 124.907 76.1967C126.571 76.922 127.744 77.9887 128.427 79.3967C129.152 80.8047 129.515 82.6393 129.515 84.9007ZM111.723 62.8207H105.451V70.7567H111.723C113.813 70.7567 115.328 70.5007 116.267 69.9887C117.205 69.434 117.675 68.3673 117.675 66.7887C117.675 65.2527 117.205 64.2073 116.267 63.6527C115.328 63.098 113.813 62.8207 111.723 62.8207ZM113.003 79.1407H105.451V87.2687H113.003C115.093 87.2687 116.608 86.9913 117.547 86.4367C118.485 85.8393 118.955 84.7513 118.955 83.1727C118.955 81.5513 118.485 80.4847 117.547 79.9727C116.608 79.418 115.093 79.1407 113.003 79.1407Z" fill="#FEFEFE"/>
<path d="M132.923 79.3256C131.586 74.3389 131.083 70.2334 131.411 67.0091C131.781 63.7738 133.176 61.1474 135.595 59.1299C138.055 57.1014 141.778 55.419 146.765 54.0828C150.515 53.0779 153.721 52.5945 156.381 52.6325C159.042 52.6706 161.303 53.2794 163.165 54.459C165.027 55.6386 166.595 57.4493 167.867 59.8911C169.17 62.2806 170.318 65.33 171.312 69.0391C172.317 72.7895 172.858 76.0457 172.936 78.8078C173.044 81.5176 172.586 83.8487 171.563 85.8013C170.54 87.7539 168.887 89.4118 166.601 90.775C164.316 92.1382 161.299 93.3223 157.548 94.3272C153.798 95.3321 150.593 95.8155 147.932 95.7775C145.272 95.7394 143.01 95.1306 141.148 93.951C139.286 92.7714 137.704 90.9869 136.401 88.5973C135.087 86.1666 133.927 83.076 132.923 79.3256ZM155.229 85.6725C157.867 84.9657 159.757 84.106 160.899 83.0932C162.041 82.0804 162.618 80.689 162.63 78.919C162.63 77.1078 162.227 74.698 161.421 71.6894C160.626 68.7221 159.781 66.4749 158.886 64.9479C157.991 63.4208 156.796 62.5043 155.3 62.1983C153.794 61.851 151.722 62.0308 149.084 62.7375C146.488 63.4332 144.603 64.3136 143.431 65.3786C142.289 66.3914 141.691 67.7883 141.638 69.5694C141.627 71.3393 142.019 73.708 142.814 76.6753C143.62 79.6839 144.476 81.9723 145.382 83.5405C146.318 85.0565 147.534 85.9675 149.03 86.2736C150.566 86.5685 152.633 86.3682 155.229 85.6725Z" fill="#FEFEFE"/>
<path d="M197.634 74.428L209.474 95.1H196.674L189.314 80.764H189.122L181.762 95.1H168.962L180.802 74.428V74.108L169.73 54.588H182.338L189.122 68.668H189.314L196.098 54.588H208.706L197.634 74.108V74.428Z" fill="#FEFEFE"/>
<path d="M82.1203 6.45297H4.24492C3.1387 6.45297 2.0769 6.89196 1.2943 7.67659C0.511709 8.45918 0.0727234 9.52343 0.0727234 10.6252V88.4985C0.0727234 89.6512 0.538203 90.6934 1.2943 91.4491C2.0504 92.2052 3.09223 92.6707 4.24492 92.6707H7.78983V95.453H13.2859H13.3524H18.848V92.6707H66.4709V95.453H71.9665H72.033H77.5287V92.6707H82.1199C83.2261 92.6707 84.2879 92.2317 85.0705 91.4491C85.8511 90.6645 86.29 89.6068 86.29 88.4985V10.6252C86.2904 8.32182 84.4261 6.45297 82.1203 6.45297ZM77.9481 84.3263H8.41753V14.7978H77.9481V84.3263Z" fill="#FEFEFE"/>
<path d="M13.3524 61.6266H10.5701V67.1912H13.3524V76.1054C13.3524 77.6416 14.5984 78.8877 16.1326 78.8877H69.2201C70.7564 78.8877 72.0004 77.6416 72.0004 76.1054V23.0183C72.0004 21.482 70.7543 20.238 69.2201 20.238H16.1346C14.5984 20.238 13.3544 21.4816 13.3544 23.0183V31.915H10.5057V37.4775H13.3544V61.627H13.3524V61.6266ZM18.9149 25.8005H66.4399V73.3255H18.9149V25.8005Z" fill="#FEFEFE"/>
<path d="M57.7914 33.2405C56.7052 32.1563 54.9447 32.1563 53.8585 33.2405L48.0546 39.0488C46.434 38.2128 44.6227 37.6988 42.6784 37.6988C40.865 37.6988 39.1645 38.1398 37.6258 38.8715L31.4804 32.7285C30.3941 31.6423 28.6337 31.6423 27.5474 32.7285C26.4612 33.8148 26.4612 35.5752 27.5474 36.6615L33.2828 42.3968C31.7576 44.392 30.8131 46.8617 30.8131 49.562C30.8131 52.2624 31.7576 54.7296 33.2828 56.7252L27.5699 62.4406C26.4836 63.5248 26.4836 65.2848 27.5699 66.3711C28.1132 66.9144 28.8245 67.1871 29.5361 67.1871C30.2478 67.1871 30.9595 66.9144 31.5024 66.3711L37.6233 60.2501C39.1596 60.9793 40.8601 61.4208 42.676 61.4208C44.729 61.4208 46.6333 60.8489 48.318 59.9265L53.7207 65.3313C54.264 65.8746 54.9753 66.1449 55.687 66.1449C56.3986 66.1449 57.1103 65.8742 57.6532 65.3313C58.7395 64.245 58.7395 62.4846 57.6532 61.3984L52.4787 56.2239C53.7733 54.324 54.5359 52.0272 54.5359 49.5596C54.5359 46.9836 53.6889 44.6158 52.29 42.6691L57.7857 37.1734C58.8777 36.0892 58.8777 34.3292 57.7914 33.2405ZM42.6784 55.8648C39.2044 55.8648 36.3777 53.0381 36.3777 49.5641C36.3777 46.0901 39.202 43.2613 42.6784 43.2613C46.1503 43.2613 48.9766 46.0881 48.9766 49.5641C48.9766 53.036 46.1503 55.8648 42.6784 55.8648Z" fill="#FEFEFE"/>
</svg>
